<svg xmlns="http://www.w3.org/2000/svg" viewBox="0 0 1080 1350" preserveAspectRatio="none">
  <defs>
    <linearGradient id="g" x1="0" y1="0" x2="0" y2="1">
      <stop offset="0%" stop-color="#1f9d4c"/>
      <stop offset="100%" stop-color="#1b8b43"/>
    </linearGradient>
  </defs>
  <rect width="1080" height="1350" fill="url(#g)"/>
  <g opacity="0.16" stroke="#ffffff" stroke-width="2">
    <path d="M0 75h1080M0 150h1080M0 225h1080M0 300h1080M0 375h1080M0 450h1080M0 525h1080M0 600h1080M0 675h1080M0 750h1080M0 825h1080M0 900h1080M0 975h1080M0 1050h1080M0 1125h1080M0 1200h1080M0 1275h1080"/>
  </g>
  <g fill="none" stroke="#fff" stroke-width="6" opacity="0.9">
    <rect x="20" y="20" width="1040" height="1310" rx="8"/>
    <line x1="20" y1="675" x2="1060" y2="675"/>
    <circle cx="540" cy="675" r="110"/>
    <rect x="350" y="20" width="380" height="170"/>
    <rect x="440" y="20" width="200" height="70"/>
    <rect x="350" y="1160" width="380" height="170"/>
    <rect x="440" y="1260" width="200" height="70"/>
  </g>
</svg>
